<?xml version="1.0" encoding="UTF-8" standalone="no"?>
<!-- Created with Inkscape (http://www.inkscape.org/) -->

<svg
   xmlns:dc="http://purl.org/dc/elements/1.1/"
   xmlns:cc="http://creativecommons.org/ns#"
   xmlns:rdf="http://www.w3.org/1999/02/22-rdf-syntax-ns#"
   xmlns:svg="http://www.w3.org/2000/svg"
   xmlns="http://www.w3.org/2000/svg"
   xmlns:sodipodi="http://sodipodi.sourceforge.net/DTD/sodipodi-0.dtd"
   xmlns:inkscape="http://www.inkscape.org/namespaces/inkscape"
   width="650.37042mm"
   height="121.45036mm"
   viewBox="0 0 650.37042 121.45036"
   version="1.1"
   id="svg8"
   inkscape:version="0.92.5 (2060ec1f9f, 2020-04-08)"
   sodipodi:docname="logo_big_dark.svg">
  <defs
     id="defs2" />
  <sodipodi:namedview
     id="base"
     pagecolor="#ffffff"
     bordercolor="#666666"
     borderopacity="1.0"
     inkscape:pageopacity="0.0"
     inkscape:pageshadow="2"
     inkscape:zoom="0.24748738"
     inkscape:cx="455.01729"
     inkscape:cy="444.12949"
     inkscape:document-units="mm"
     inkscape:current-layer="flowRoot841"
     showgrid="false"
     inkscape:window-width="2560"
     inkscape:window-height="1375"
     inkscape:window-x="0"
     inkscape:window-y="0"
     inkscape:window-maximized="1" />
  <metadata
     id="metadata5">
    <rdf:RDF>
      <cc:Work
         rdf:about="">
        <dc:format>image/svg+xml</dc:format>
        <dc:type
           rdf:resource="http://purl.org/dc/dcmitype/StillImage" />
        <dc:title />
      </cc:Work>
    </rdf:RDF>
  </metadata>
  <g
     inkscape:label="Layer 1"
     inkscape:groupmode="layer"
     id="layer1"
     transform="translate(-72.575089,-70.482986)">
    <path
       style="fill:#000000;fill-opacity:1;stroke:none;stroke-width:0.24437435;stroke-linecap:round;stroke-miterlimit:4;stroke-dasharray:none;stroke-opacity:1"
       d="M 191.82967,130.11028 A 59.627289,59.627289 0 0 1 132.20238,189.73756 59.627289,59.627289 0 0 1 72.575089,130.11028 59.627289,59.627289 0 0 1 132.20238,70.482986 59.627289,59.627289 0 0 1 191.82967,130.11028 Z"
       id="path817"
       inkscape:connector-curvature="0" />
    <path
       style="fill:#ffffff;fill-opacity:1;stroke:none;stroke-width:0.1937682;stroke-linecap:round;stroke-miterlimit:4;stroke-dasharray:none;stroke-opacity:1"
       d="m 179.48178,130.11028 a 47.279404,47.279404 0 0 1 -47.2794,47.2794 47.279404,47.279404 0 0 1 -47.279406,-47.2794 47.279404,47.279404 0 0 1 47.279406,-47.279408 47.279404,47.279404 0 0 1 47.2794,47.279408 z"
       id="circle819"
       inkscape:connector-curvature="0" />
    <path
       style="fill:#000000;fill-opacity:1;stroke:none;stroke-width:0.14183034;stroke-linecap:round;stroke-miterlimit:4;stroke-dasharray:none;stroke-opacity:1"
       d="M 166.80895,130.11028 A 34.606575,34.606575 0 0 1 132.20238,164.71685 34.606575,34.606575 0 0 1 97.595802,130.11028 34.606575,34.606575 0 0 1 132.20238,95.5037 34.606575,34.606575 0 0 1 166.80895,130.11028 Z"
       id="circle821"
       inkscape:connector-curvature="0" />
    <path
       style="fill:#ffffff;fill-opacity:1;stroke:none;stroke-width:0.09255595;stroke-linecap:round;stroke-miterlimit:4;stroke-dasharray:none;stroke-opacity:1"
       d="m 154.78601,130.11028 a 22.583632,22.583632 0 0 1 -22.58363,22.58363 22.583632,22.583632 0 0 1 -22.58363,-22.58363 22.583632,22.583632 0 0 1 22.58363,-22.58364 22.583632,22.583632 0 0 1 22.58363,22.58364 z"
       id="circle823"
       inkscape:connector-curvature="0" />
    <path
       style="fill:none;stroke:#000000;stroke-width:10.29168606;stroke-linecap:butt;stroke-linejoin:miter;stroke-miterlimit:4;stroke-dasharray:none;stroke-opacity:1"
       d="m 112.21832,151.88163 c 13.97261,13.4852 11.86047,35.41894 11.86047,35.41894"
       id="path833"
       inkscape:connector-curvature="0"
       sodipodi:nodetypes="cc" />
    <path
       sodipodi:nodetypes="cc"
       inkscape:connector-curvature="0"
       id="path835"
       d="m 146.31624,79.825591 c 13.9726,13.485193 11.86047,35.418949 11.86047,35.418949"
       style="fill:none;stroke:#000000;stroke-width:10.29168606;stroke-linecap:butt;stroke-linejoin:miter;stroke-miterlimit:4;stroke-dasharray:none;stroke-opacity:1" />
    <path
       style="fill:none;stroke:#000000;stroke-width:10.29168606;stroke-linecap:butt;stroke-linejoin:miter;stroke-miterlimit:4;stroke-dasharray:none;stroke-opacity:1"
       d="m 135.51702,124.35512 c 13.97261,13.48519 9.79254,33.351 9.79254,33.351"
       id="path837"
       inkscape:connector-curvature="0"
       sodipodi:nodetypes="cc" />
    <path
       style="fill:#800000;fill-opacity:1;stroke:none;stroke-width:0.04860851;stroke-linecap:round;stroke-miterlimit:4;stroke-dasharray:none;stroke-opacity:1"
       d="m 144.06284,130.11028 a 11.860467,11.860467 0 0 1 -11.86046,11.86046 11.860467,11.860467 0 0 1 -11.86047,-11.86046 11.860467,11.860467 0 0 1 11.86047,-11.86047 11.860467,11.860467 0 0 1 11.86046,11.86047 z"
       id="circle825"
       inkscape:connector-curvature="0" />
    <path
       style="fill:none;stroke:#000000;stroke-width:10.29168606;stroke-linecap:butt;stroke-linejoin:miter;stroke-miterlimit:4;stroke-dasharray:none;stroke-opacity:1"
       d="M 116.58468,105.69053 C 92.538796,117.87595 85.877434,157.03174 85.877434,157.03174"
       id="path839"
       inkscape:connector-curvature="0"
       sodipodi:nodetypes="cc" />
    <g
       aria-label="Fingerprinting Suite"
       transform="matrix(0.72772223,0,0,0.72772223,-333.66872,-113.57685)"
       style="font-style:normal;font-weight:normal;font-size:12px;line-height:1.25;font-family:sans-serif;letter-spacing:0px;word-spacing:0px;fill:#000000;fill-opacity:1;stroke:none"
       id="flowRoot841">
      <path
         d="m 794.36142,265.24895 v 10.272 h -30.816 v 20.544 h 26.016 v 10.32 h -26.016 v 28.272 h -12.96 v -69.408 z"
         style="font-style:normal;font-variant:normal;font-weight:bold;font-stretch:normal;font-size:96px;font-family:Lato;-inkscape-font-specification:'Lato Bold'"
         id="path881"
         inkscape:connector-curvature="0" />
      <path
         d="m 815.33742,285.40895 v 49.248 h -11.904 v -49.248 z m 1.632,-14.352 q 0,1.536 -0.624,2.88 -0.624,1.344 -1.68,2.352 -1.008,1.008 -2.4,1.632 -1.392,0.576 -2.976,0.576 -1.536,0 -2.928,-0.576 -1.344,-0.624 -2.352,-1.632 -1.008,-1.008 -1.632,-2.352 -0.576,-1.344 -0.576,-2.88 0,-1.584 0.576,-2.976 0.624,-1.392 1.632,-2.4 1.008,-1.008 2.352,-1.584 1.392,-0.624 2.928,-0.624 1.584,0 2.976,0.624 1.392,0.576 2.4,1.584 1.056,1.008 1.68,2.4 0.624,1.392 0.624,2.976 z"
         style="font-style:normal;font-variant:normal;font-weight:bold;font-stretch:normal;font-size:96px;font-family:Lato;-inkscape-font-specification:'Lato Bold'"
         id="path883"
         inkscape:connector-curvature="0" />
      <path
         d="m 827.43339,334.65695 v -49.248 h 7.248 q 2.304,0 3.024,2.16 l 0.816,3.888 q 1.488,-1.536 3.12,-2.784 1.68,-1.248 3.504,-2.16 1.872,-0.912 3.984,-1.392 2.112,-0.48 4.608,-0.48 4.032,0 7.152,1.392 3.12,1.344 5.184,3.84 2.112,2.448 3.168,5.904 1.104,3.408 1.104,7.536 v 31.344 h -11.856 v -31.344 q 0,-4.512 -2.064,-6.96 -2.064,-2.496 -6.288,-2.496 -3.072,0 -5.76,1.392 -2.688,1.392 -5.088,3.792 v 35.616 z"
         style="font-style:normal;font-variant:normal;font-weight:bold;font-stretch:normal;font-size:96px;font-family:Lato;-inkscape-font-specification:'Lato Bold'"
         id="path885"
         inkscape:connector-curvature="0" />
      <path
         d="m 899.57731,284.54495 q 3.168,0 5.904,0.672 2.784,0.624 5.136,1.872 h 14.16 v 4.416 q 0,2.112 -2.544,2.592 l -4.416,0.816 q 0.48,1.248 0.72,2.64 0.288,1.392 0.288,2.928 0,3.648 -1.488,6.624 -1.44,2.928 -4.032,4.992 -2.592,2.064 -6.144,3.216 -3.504,1.104 -7.584,1.104 -2.784,0 -5.424,-0.528 -2.304,1.392 -2.304,3.12 0,1.488 1.344,2.208 1.392,0.672 3.648,0.96 2.256,0.288 5.136,0.384 2.88,0.048 5.904,0.288 3.024,0.24 5.904,0.864 2.88,0.576 5.136,1.872 2.256,1.296 3.6,3.552 1.392,2.208 1.392,5.712 0,3.264 -1.632,6.336 -1.584,3.072 -4.656,5.472 -3.024,2.4 -7.488,3.84 -4.416,1.488 -10.08,1.488 -5.568,0 -9.696,-1.104 -4.128,-1.056 -6.864,-2.88 -2.736,-1.776 -4.08,-4.128 -1.344,-2.352 -1.344,-4.896 0,-3.408 2.064,-5.76 2.112,-2.352 5.712,-3.744 -1.92,-1.008 -3.072,-2.688 -1.152,-1.68 -1.152,-4.416 0,-1.104 0.384,-2.256 0.384,-1.2 1.152,-2.352 0.816,-1.152 2.016,-2.16 1.248,-1.056 2.88,-1.872 -3.744,-2.016 -5.904,-5.376 -2.112,-3.36 -2.112,-7.872 0,-3.648 1.44,-6.576 1.488,-2.976 4.08,-5.04 2.64,-2.112 6.192,-3.216 3.6,-1.104 7.824,-1.104 z m 13.392,52.32 q 0,-1.44 -0.864,-2.304 -0.864,-0.912 -2.352,-1.44 -1.488,-0.528 -3.504,-0.768 -1.968,-0.24 -4.224,-0.336 -2.208,-0.144 -4.608,-0.24 -2.352,-0.096 -4.608,-0.384 -1.968,1.104 -3.216,2.592 -1.2,1.488 -1.2,3.456 0,1.296 0.624,2.4 0.672,1.152 2.064,1.968 1.44,0.816 3.696,1.248 2.256,0.48 5.52,0.48 3.312,0 5.712,-0.528 2.4,-0.48 3.936,-1.392 1.584,-0.864 2.304,-2.112 0.72,-1.2 0.72,-2.64 z m -13.392,-28.032 q 2.208,0 3.84,-0.576 1.632,-0.624 2.688,-1.68 1.104,-1.056 1.632,-2.544 0.576,-1.488 0.576,-3.264 0,-3.648 -2.208,-5.76 -2.16,-2.16 -6.528,-2.16 -4.368,0 -6.576,2.16 -2.16,2.112 -2.16,5.76 0,1.728 0.528,3.216 0.576,1.488 1.632,2.592 1.104,1.056 2.736,1.68 1.68,0.576 3.84,0.576 z"
         style="font-style:normal;font-variant:normal;font-weight:bold;font-stretch:normal;font-size:96px;font-family:Lato;-inkscape-font-specification:'Lato Bold'"
         id="path887"
         inkscape:connector-curvature="0" />
      <path
         d="m 952.37723,284.64095 q 4.656,0 8.592,1.488 3.936,1.488 6.768,4.368 2.832,2.832 4.416,7.008 1.632,4.128 1.632,9.456 0,2.688 -0.576,3.648 -0.576,0.912 -2.208,0.912 h -30.48 q 0.288,3.792 1.344,6.576 1.056,2.736 2.784,4.56 1.728,1.776 4.08,2.688 2.4,0.864 5.28,0.864 2.88,0 4.944,-0.672 2.112,-0.672 3.648,-1.488 1.584,-0.816 2.736,-1.488 1.2,-0.672 2.304,-0.672 1.488,0 2.208,1.104 l 3.408,4.32 q -1.968,2.304 -4.416,3.888 -2.448,1.536 -5.136,2.496 -2.64,0.912 -5.424,1.296 -2.736,0.384 -5.328,0.384 -5.136,0 -9.552,-1.68 -4.416,-1.728 -7.68,-5.04 -3.264,-3.36 -5.136,-8.256 -1.872,-4.944 -1.872,-11.424 0,-5.04 1.632,-9.456 1.632,-4.464 4.656,-7.728 3.072,-3.312 7.44,-5.232 4.416,-1.92 9.936,-1.92 z m 0.24,8.496 q -5.184,0 -8.112,2.928 -2.928,2.928 -3.744,8.304 h 22.368 q 0,-2.304 -0.672,-4.32 -0.624,-2.064 -1.92,-3.6 -1.296,-1.536 -3.312,-2.4 -1.968,-0.912 -4.608,-0.912 z"
         style="font-style:normal;font-variant:normal;font-weight:bold;font-stretch:normal;font-size:96px;font-family:Lato;-inkscape-font-specification:'Lato Bold'"
         id="path889"
         inkscape:connector-curvature="0" />
      <path
         d="m 982.66508,334.65695 v -49.248 h 6.96 q 1.824,0 2.544,0.672 0.72,0.624 0.96,2.304 l 0.672,5.568 q 2.352,-4.416 5.52,-6.912 3.16802,-2.544 7.48802,-2.544 3.408,0 5.472,1.488 l -0.768,8.88 q -0.24,0.864 -0.72,1.248 -0.432,0.336 -1.2,0.336 -0.72,0 -2.16,-0.24 -1.392,-0.24 -2.736,-0.24 -1.968,0 -3.504,0.576 -1.53602,0.576 -2.78402,1.68 -1.2,1.056 -2.16,2.592 -0.912,1.536 -1.728,3.504 v 30.336 z"
         style="font-style:normal;font-variant:normal;font-weight:bold;font-stretch:normal;font-size:96px;font-family:Lato;-inkscape-font-specification:'Lato Bold'"
         id="path891"
         inkscape:connector-curvature="0" />
      <path
         d="m 1018.473,350.73695 v -65.328 h 7.248 q 2.304,0 3.024,2.16 l 0.96,4.56 q 2.976,-3.408 6.816,-5.52 3.888,-2.112 9.072,-2.112 4.032,0 7.344,1.68 3.36,1.68 5.76,4.896 2.448,3.168 3.744,7.872 1.344,4.656 1.344,10.704 0,5.52 -1.488,10.224 -1.488,4.704 -4.272,8.16 -2.736,3.456 -6.672,5.424 -3.888,1.92 -8.736,1.92 -4.176,0 -7.104,-1.248 -2.88,-1.296 -5.184,-3.552 v 20.16 z m 23.04,-56.88 q -3.696,0 -6.336,1.584 -2.592,1.536 -4.848,4.368 v 22.08 q 2.016,2.496 4.368,3.504 2.4,0.96 5.184,0.96 2.688,0 4.848,-1.008 2.16,-1.008 3.648,-3.072 1.536,-2.064 2.352,-5.184 0.816,-3.168 0.816,-7.44 0,-4.32 -0.72,-7.296 -0.672,-3.024 -1.968,-4.896 -1.296,-1.872 -3.168,-2.736 -1.824,-0.864 -4.176,-0.864 z"
         style="font-style:normal;font-variant:normal;font-weight:bold;font-stretch:normal;font-size:96px;font-family:Lato;-inkscape-font-specification:'Lato Bold'"
         id="path893"
         inkscape:connector-curvature="0" />
      <path
         d="m 1073.0009,334.65695 v -49.248 h 6.96 q 1.824,0 2.544,0.672 0.72,0.624 0.96,2.304 l 0.672,5.568 q 2.352,-4.416 5.52,-6.912 3.168,-2.544 7.488,-2.544 3.408,0 5.472,1.488 l -0.768,8.88 q -0.24,0.864 -0.72,1.248 -0.432,0.336 -1.2,0.336 -0.72,0 -2.16,-0.24 -1.392,-0.24 -2.736,-0.24 -1.968,0 -3.504,0.576 -1.536,0.576 -2.784,1.68 -1.2,1.056 -2.16,2.592 -0.912,1.536 -1.728,3.504 v 30.336 z"
         style="font-style:normal;font-variant:normal;font-weight:bold;font-stretch:normal;font-size:96px;font-family:Lato;-inkscape-font-specification:'Lato Bold'"
         id="path895"
         inkscape:connector-curvature="0" />
      <path
         d="m 1121.0968,285.40895 v 49.248 h -11.904 v -49.248 z m 1.632,-14.352 q 0,1.536 -0.624,2.88 -0.624,1.344 -1.68,2.352 -1.008,1.008 -2.4,1.632 -1.392,0.576 -2.976,0.576 -1.536,0 -2.928,-0.576 -1.344,-0.624 -2.352,-1.632 -1.008,-1.008 -1.632,-2.352 -0.576,-1.344 -0.576,-2.88 0,-1.584 0.576,-2.976 0.624,-1.392 1.632,-2.4 1.008,-1.008 2.352,-1.584 1.392,-0.624 2.928,-0.624 1.584,0 2.976,0.624 1.392,0.576 2.4,1.584 1.056,1.008 1.68,2.4 0.624,1.392 0.624,2.976 z"
         style="font-style:normal;font-variant:normal;font-weight:bold;font-stretch:normal;font-size:96px;font-family:Lato;-inkscape-font-specification:'Lato Bold'"
         id="path897"
         inkscape:connector-curvature="0" />
      <path
         d="m 1133.1928,334.65695 v -49.248 h 7.248 q 2.304,0 3.024,2.16 l 0.816,3.888 q 1.488,-1.536 3.12,-2.784 1.68,-1.248 3.504,-2.16 1.872,-0.912 3.984,-1.392 2.112,-0.48 4.608,-0.48 4.032,0 7.152,1.392 3.12,1.344 5.184,3.84 2.112,2.448 3.168,5.904 1.104,3.408 1.104,7.536 v 31.344 h -11.856 v -31.344 q 0,-4.512 -2.064,-6.96 -2.064,-2.496 -6.288,-2.496 -3.072,0 -5.76,1.392 -2.688,1.392 -5.088,3.792 v 35.616 z"
         style="font-style:normal;font-variant:normal;font-weight:bold;font-stretch:normal;font-size:96px;font-family:Lato;-inkscape-font-specification:'Lato Bold'"
         id="path899"
         inkscape:connector-curvature="0" />
      <path
         d="m 1203.0805,335.42495 c -4.288,0 -7.584,-1.2 -9.888,-3.6 -2.272,-2.432 -3.408,-5.776 -3.408,-10.032 v -27.504 h -5.04 c -0.64,0 -1.184,-0.208 -1.632,-0.624 -0.448,-0.416 -0.672,-1.04 -0.672,-1.872 v -4.704 l 7.92,-1.296 2.496,-13.44 c 0.16,-0.64 0.464,-1.136 0.912,-1.488 0.448,-0.352 1.024,-0.528 1.728,-0.528 h 6.144 v 15.504 h 15.4962 l 0.08,8.448 h -15.5765 v 26.688 c 0,1.536 0.368,2.736 1.104,3.6 0.768,0.864 1.808,1.296 3.12,1.296 0.736,0 1.344,-0.08 1.824,-0.24 0.512,-0.192 0.944,-0.384 1.296,-0.576 0.384,-0.192 0.72,-0.368 1.008,-0.528 0.288,-0.192 0.576,-0.288 0.864,-0.288 0.352,0 0.64,0.096 0.864,0.288 0.224,0.16 0.464,0.416 0.72,0.768 l 3.552,5.76 c -1.728,1.44 -3.712,2.528 -5.952,3.264 -2.24,0.736 -4.56,1.104 -6.96,1.104 z"
         style="font-style:normal;font-variant:normal;font-weight:bold;font-stretch:normal;font-size:96px;font-family:Lato;-inkscape-font-specification:'Lato Bold'"
         id="path901"
         inkscape:connector-curvature="0"
         sodipodi:nodetypes="scscssscccsscccccscscccscccss" />
      <path
         d="m 1282.3636,277.87295 q -0.576,1.008 -1.248,1.488 -0.624,0.432 -1.584,0.432 -1.008,0 -2.208,-0.72 -1.152,-0.768 -2.784,-1.68 -1.632,-0.912 -3.84,-1.632 -2.16,-0.768 -5.136,-0.768 -2.688,0 -4.704,0.672 -2.016,0.624 -3.408,1.776 -1.344,1.152 -2.016,2.784 -0.672,1.584 -0.672,3.504 0,2.448 1.344,4.08 1.392,1.632 3.648,2.784 2.256,1.152 5.136,2.064 2.88,0.912 5.904,1.968 3.024,1.008 5.904,2.4 2.88,1.344 5.136,3.456 2.256,2.064 3.6,5.088 1.392,3.024 1.392,7.344 0,4.704 -1.632,8.832 -1.584,4.08 -4.704,7.152 -3.072,3.024 -7.536,4.8 -4.464,1.728 -10.224,1.728 -3.312,0 -6.528,-0.672 -3.216,-0.624 -6.192,-1.824 -2.928,-1.2 -5.52,-2.88 -2.592,-1.68 -4.608,-3.744 l 3.792,-6.192 q 0.48,-0.672 1.248,-1.104 0.768,-0.48 1.632,-0.48 1.2,0 2.592,1.008 1.392,0.96 3.312,2.16 1.92,1.2 4.464,2.208 2.592,0.96 6.192,0.96 5.52,0 8.544,-2.592 3.024,-2.64 3.024,-7.536 0,-2.736 -1.392,-4.464 -1.344,-1.728 -3.6,-2.88 -2.256,-1.2 -5.136,-2.016 -2.88,-0.816 -5.856,-1.776 -2.976,-0.96 -5.856,-2.304 -2.88,-1.344 -5.136,-3.504 -2.256,-2.16 -3.648,-5.376 -1.344,-3.264 -1.344,-8.016 0,-3.792 1.488,-7.392 1.536,-3.6 4.416,-6.384 2.88,-2.784 7.104,-4.464 4.224,-1.68 9.696,-1.68 6.144,0 11.328,1.92 5.184,1.92 8.832,5.376 z"
         style="font-style:normal;font-variant:normal;font-weight:bold;font-stretch:normal;font-size:96px;font-family:Lato;-inkscape-font-specification:'Lato Bold'"
         id="path907"
         inkscape:connector-curvature="0" />
      <path
         d="m 1306.6993,285.40895 v 31.296 q 0,4.512 2.064,7.008 2.112,2.448 6.288,2.448 3.072,0 5.76,-1.344 2.688,-1.392 5.088,-3.792 v -35.616 h 11.856 v 49.248 h -7.248 q -2.352,0 -2.976,-2.16 l -0.816,-3.936 q -1.536,1.536 -3.168,2.832 -1.632,1.248 -3.504,2.16 -1.872,0.912 -3.984,1.392 -2.112,0.48 -4.608,0.48 -4.032,0 -7.152,-1.344 -3.072,-1.392 -5.184,-3.888 -2.112,-2.496 -3.216,-5.904 -1.056,-3.456 -1.056,-7.584 v -31.296 z"
         style="font-style:normal;font-variant:normal;font-weight:bold;font-stretch:normal;font-size:96px;font-family:Lato;-inkscape-font-specification:'Lato Bold'"
         id="path909"
         inkscape:connector-curvature="0" />
      <path
         d="m 1361.7553,285.40895 v 49.248 h -11.904 v -49.248 z m 1.632,-14.352 q 0,1.536 -0.624,2.88 -0.624,1.344 -1.68,2.352 -1.008,1.008 -2.4,1.632 -1.392,0.576 -2.976,0.576 -1.536,0 -2.928,-0.576 -1.344,-0.624 -2.352,-1.632 -1.008,-1.008 -1.632,-2.352 -0.576,-1.344 -0.576,-2.88 0,-1.584 0.576,-2.976 0.624,-1.392 1.632,-2.4 1.008,-1.008 2.352,-1.584 1.392,-0.624 2.928,-0.624 1.584,0 2.976,0.624 1.392,0.576 2.4,1.584 1.056,1.008 1.68,2.4 0.624,1.392 0.624,2.976 z"
         style="font-style:normal;font-variant:normal;font-weight:bold;font-stretch:normal;font-size:96px;font-family:Lato;-inkscape-font-specification:'Lato Bold'"
         id="path911"
         inkscape:connector-curvature="0" />
      <path
         d="m 1390.2672,335.42495 q -6.432,0 -9.888,-3.6 -3.408,-3.648 -3.408,-10.032 v -27.504 h -5.04 q -0.96,0 -1.632,-0.624 -0.672,-0.624 -0.672,-1.872 v -4.704 l 7.92,-1.296 2.496,-13.44 q 0.24,-0.96 0.912,-1.488 0.672,-0.528 1.728,-0.528 h 6.144 v 15.504 h 13.152 v 8.448 h -13.152 v 26.688 q 0,2.304 1.104,3.6 1.152,1.296 3.12,1.296 1.104,0 1.824,-0.24 0.768,-0.288 1.296,-0.576 0.576,-0.288 1.008,-0.528 0.432,-0.288 0.864,-0.288 0.528,0 0.864,0.288 0.336,0.24 0.72,0.768 l 3.552,5.76 q -2.592,2.16 -5.952,3.264 -3.36,1.104 -6.96,1.104 z"
         style="font-style:normal;font-variant:normal;font-weight:bold;font-stretch:normal;font-size:96px;font-family:Lato;-inkscape-font-specification:'Lato Bold'"
         id="path913"
         inkscape:connector-curvature="0" />
      <path
         d="m 1430.5392,284.64095 q 4.656,0 8.592,1.488 3.936,1.488 6.768,4.368 2.832,2.832 4.416,7.008 1.632,4.128 1.632,9.456 0,2.688 -0.576,3.648 -0.576,0.912 -2.208,0.912 h -30.48 q 0.288,3.792 1.344,6.576 1.056,2.736 2.784,4.56 1.728,1.776 4.08,2.688 2.4,0.864 5.28,0.864 2.88,0 4.944,-0.672 2.112,-0.672 3.648,-1.488 1.584,-0.816 2.736,-1.488 1.2,-0.672 2.304,-0.672 1.488,0 2.208,1.104 l 3.408,4.32 q -1.968,2.304 -4.416,3.888 -2.448,1.536 -5.136,2.496 -2.64,0.912 -5.424,1.296 -2.736,0.384 -5.328,0.384 -5.136,0 -9.552,-1.68 -4.416,-1.728 -7.68,-5.04 -3.264,-3.36 -5.136,-8.256 -1.872,-4.944 -1.872,-11.424 0,-5.04 1.632,-9.456 1.632,-4.464 4.656,-7.728 3.072,-3.312 7.44,-5.232 4.416,-1.92 9.936,-1.92 z m 0.24,8.496 q -5.184,0 -8.112,2.928 -2.928,2.928 -3.744,8.304 h 22.368 q 0,-2.304 -0.672,-4.32 -0.624,-2.064 -1.92,-3.6 -1.296,-1.536 -3.312,-2.4 -1.968,-0.912 -4.608,-0.912 z"
         style="font-style:normal;font-variant:normal;font-weight:bold;font-stretch:normal;font-size:96px;font-family:Lato;-inkscape-font-specification:'Lato Bold'"
         id="path915"
         inkscape:connector-curvature="0" />
    </g>
    <g
       aria-label="privacy for your scraping"
       transform="matrix(0.44820573,0,0,0.44820573,-124.91805,33.891999)"
       style="font-style:normal;font-weight:normal;font-size:12px;line-height:1.25;font-family:sans-serif;letter-spacing:0px;word-spacing:0px;fill:#000000;fill-opacity:1;stroke:none"
       id="flowRoot855">
      <path
         d="m 751.30542,351.79295 v -64.464 h 1.2 q 0.912,0 0.96,0.96 l 0.288,8.256 q 3.168,-4.608 7.536,-7.296 4.416,-2.688 9.744,-2.688 8.976,0 13.824,5.952 4.896,5.952 4.896,18.192 0,5.184 -1.344,9.648 -1.296,4.464 -3.936,7.776 -2.592,3.312 -6.48,5.232 -3.84,1.872 -8.928,1.872 -9.984,0 -15.216,-7.824 v 24.384 z m 19.2,-63.216 q -4.992,0 -9.264,2.784 -4.224,2.736 -7.392,7.536 v 25.968 q 2.928,4.608 6.528,6.528 3.6,1.872 8.304,1.872 4.656,0 8.112,-1.68 3.456,-1.728 5.76,-4.752 2.304,-3.024 3.456,-7.152 1.152,-4.128 1.152,-8.976 0,-11.28 -4.272,-16.704 -4.272,-5.424 -12.384,-5.424 z"
         style="font-style:normal;font-variant:normal;font-weight:200;font-stretch:normal;font-size:96px;font-family:Lato;-inkscape-font-specification:'Lato Ultra-Light'"
         id="path918"
         inkscape:connector-curvature="0" />
      <path
         d="m 803.76935,334.65695 v -47.328 h 1.152 q 0.96,0 1.008,1.056 l 0.288,11.664 q 2.064,-6.432 5.76,-9.936 3.744,-3.552 9.792,-3.552 1.392,0 2.832,0.24 1.488,0.192 2.64,0.864 l -0.288,1.488 q -0.192,0.528 -0.672,0.528 -0.528,0 -1.632,-0.336 -1.056,-0.384 -3.168,-0.384 -3.024,0 -5.328,0.96 -2.304,0.912 -4.128,2.784 -1.824,1.824 -3.216,4.56 -1.344,2.736 -2.496,6.384 v 31.008 z"
         style="font-style:normal;font-variant:normal;font-weight:200;font-stretch:normal;font-size:96px;font-family:Lato;-inkscape-font-specification:'Lato Ultra-Light'"
         id="path920"
         inkscape:connector-curvature="0" />
      <path
         d="m 840.20134,287.32895 v 47.328 h -2.496 v -47.328 z m 2.064,-17.088 q 0,0.672 -0.288,1.248 -0.288,0.576 -0.768,1.056 -0.432,0.432 -1.056,0.72 -0.576,0.24 -1.2,0.24 -1.344,0 -2.352,-0.96 -0.96,-1.008 -0.96,-2.304 0,-1.344 0.96,-2.304 1.008,-1.008 2.352,-1.008 0.624,0 1.2,0.288 0.624,0.24 1.056,0.72 0.48,0.432 0.768,1.056 0.288,0.576 0.288,1.248 z"
         style="font-style:normal;font-variant:normal;font-weight:200;font-stretch:normal;font-size:96px;font-family:Lato;-inkscape-font-specification:'Lato Ultra-Light'"
         id="path922"
         inkscape:connector-curvature="0" />
      <path
         d="m 873.99322,334.65695 h -2.112 l -20.352,-47.328 h 1.872 q 0.48,0 0.768,0.288 0.288,0.288 0.384,0.576 l 17.568,40.944 q 0.24,0.672 0.432,1.344 0.24,0.672 0.384,1.344 0.192,-0.672 0.384,-1.344 0.192,-0.672 0.48,-1.344 l 17.568,-40.944 q 0.192,-0.384 0.48,-0.624 0.288,-0.24 0.72,-0.24 h 1.776 z"
         style="font-style:normal;font-variant:normal;font-weight:200;font-stretch:normal;font-size:96px;font-family:Lato;-inkscape-font-specification:'Lato Ultra-Light'"
         id="path924"
         inkscape:connector-curvature="0" />
      <path
         d="m 932.84107,334.65695 q -0.96,0 -1.104,-1.008 l -0.48,-6.96 q -1.968,2.016 -3.984,3.648 -1.968,1.584 -4.176,2.736 -2.16,1.104 -4.704,1.728 -2.544,0.624 -5.616,0.624 -2.256,0 -4.464,-0.672 -2.208,-0.672 -3.984,-2.112 -1.776,-1.44 -2.88,-3.696 -1.056,-2.304 -1.056,-5.52 0,-3.12 1.776,-5.664 1.824,-2.544 5.616,-4.368 3.792,-1.872 9.6,-2.928 5.808,-1.104 13.824,-1.296 v -5.616 q 0,-7.104 -3.072,-11.04 -3.072,-3.936 -9.12,-3.936 -3.6,0 -6.192,1.056 -2.592,1.008 -4.32,2.304 -1.728,1.248 -2.784,2.304 -1.008,1.008 -1.536,1.008 -0.48,0 -0.864,-0.528 l -0.432,-0.672 q 3.552,-3.648 7.44,-5.568 3.888,-1.92 8.88,-1.92 3.696,0 6.432,1.2 2.736,1.152 4.512,3.36 1.824,2.208 2.688,5.376 0.864,3.12 0.864,7.056 v 31.104 z m -19.584,-1.104 q 3.072,0 5.616,-0.672 2.544,-0.72 4.704,-1.92 2.16,-1.2 4.032,-2.784 1.872,-1.632 3.6,-3.456 v -13.728 q -14.496,0.48 -21.456,3.6 -6.912,3.12 -6.912,8.736 0,2.64 0.864,4.56 0.912,1.92 2.352,3.216 1.488,1.248 3.36,1.872 1.872,0.576 3.84,0.576 z"
         style="font-style:normal;font-variant:normal;font-weight:200;font-stretch:normal;font-size:96px;font-family:Lato;-inkscape-font-specification:'Lato Ultra-Light'"
         id="path926"
         inkscape:connector-curvature="0" />
      <path
         d="m 981.36897,292.51295 q -0.144,0.144 -0.288,0.288 -0.144,0.096 -0.384,0.096 -0.384,0 -1.2,-0.672 -0.816,-0.672 -2.256,-1.488 -1.44,-0.816 -3.648,-1.488 -2.208,-0.672 -5.328,-0.672 -4.416,0 -7.872,1.584 -3.408,1.536 -5.808,4.464 -2.352,2.928 -3.6,7.056 -1.248,4.128 -1.248,9.312 0,5.328 1.248,9.504 1.296,4.128 3.6,6.96 2.352,2.832 5.616,4.32 3.312,1.488 7.344,1.488 3.648,0 6.096,-0.816 2.496,-0.864 4.128,-1.872 1.632,-1.056 2.496,-1.872 0.864,-0.864 1.248,-0.864 0.384,0 0.624,0.288 l 0.576,0.72 q -0.864,1.2 -2.4,2.352 -1.488,1.152 -3.504,2.064 -1.968,0.864 -4.416,1.392 -2.4,0.576 -5.136,0.576 -4.56,0 -8.256,-1.632 -3.696,-1.632 -6.336,-4.752 -2.592,-3.12 -4.032,-7.632 -1.44,-4.512 -1.44,-10.224 0,-5.472 1.392,-9.984 1.44,-4.512 4.128,-7.68 2.688,-3.216 6.576,-4.992 3.888,-1.776 8.88,-1.776 4.416,0 7.872,1.44 3.456,1.392 5.952,3.696 z"
         style="font-style:normal;font-variant:normal;font-weight:200;font-stretch:normal;font-size:96px;font-family:Lato;-inkscape-font-specification:'Lato Ultra-Light'"
         id="path928"
         inkscape:connector-curvature="0" />
      <path
         d="m 1004.3128,350.54495 q -0.24,0.48 -0.576,0.864 -0.336,0.384 -0.96,0.384 h -1.68 l 8.16,-18.288 -20.256,-46.176 h 1.92 q 0.528,0 0.816,0.288 0.336,0.288 0.432,0.576 l 17.664,40.512 q 0.384,1.008 0.72,2.208 0.336,-1.008 0.816,-2.208 l 17.568,-40.512 q 0.192,-0.384 0.48,-0.624 0.336,-0.24 0.72,-0.24 h 1.776 z"
         style="font-style:normal;font-variant:normal;font-weight:200;font-stretch:normal;font-size:96px;font-family:Lato;-inkscape-font-specification:'Lato Ultra-Light'"
         id="path930"
         inkscape:connector-curvature="0" />
      <path
         d="m 1069.7366,334.65695 v -43.536 l -7.392,-0.288 q -0.912,-0.096 -0.912,-0.72 v -0.96 h 8.304 v -6.768 q 0,-4.032 0.96,-7.008 1.008,-3.024 2.784,-4.992 1.824,-2.016 4.32,-2.976 2.496,-0.96 5.472,-0.96 1.44,0 2.928,0.24 1.488,0.24 2.592,0.768 l -0.144,1.104 q -0.048,0.384 -0.336,0.432 -0.288,0 -0.912,-0.096 -0.624,-0.144 -1.584,-0.288 -0.912,-0.192 -2.256,-0.192 -2.448,0 -4.512,0.768 -2.064,0.72 -3.6,2.4 -1.488,1.68 -2.352,4.368 -0.864,2.64 -0.864,6.48 v 6.72 h 16.224 v 1.92 h -16.176 v 43.584 z"
         style="font-style:normal;font-variant:normal;font-weight:200;font-stretch:normal;font-size:96px;font-family:Lato;-inkscape-font-specification:'Lato Ultra-Light'"
         id="path932"
         inkscape:connector-curvature="0" />
      <path
         d="m 1115.3364,286.56095 q 5.04,0 8.928,1.776 3.936,1.728 6.624,4.944 2.688,3.168 4.08,7.68 1.392,4.512 1.392,10.032 0,5.52 -1.392,10.032 -1.392,4.464 -4.08,7.632 -2.688,3.168 -6.624,4.896 -3.888,1.68 -8.928,1.68 -5.04,0 -8.976,-1.68 -3.888,-1.728 -6.576,-4.896 -2.688,-3.168 -4.08,-7.632 -1.392,-4.512 -1.392,-10.032 0,-5.52 1.392,-10.032 1.392,-4.512 4.08,-7.68 2.688,-3.216 6.576,-4.944 3.936,-1.776 8.976,-1.776 z m 0,46.656 q 4.608,0 8.064,-1.584 3.456,-1.584 5.76,-4.512 2.352,-2.928 3.504,-7.008 1.152,-4.08 1.152,-9.12 0,-5.04 -1.152,-9.168 -1.152,-4.128 -3.504,-7.056 -2.304,-2.976 -5.76,-4.56 -3.456,-1.632 -8.064,-1.632 -4.608,0 -8.064,1.632 -3.456,1.584 -5.808,4.56 -2.304,2.928 -3.456,7.056 -1.152,4.128 -1.152,9.168 0,5.04 1.152,9.12 1.152,4.08 3.456,7.008 2.352,2.928 5.808,4.512 3.456,1.584 8.064,1.584 z"
         style="font-style:normal;font-variant:normal;font-weight:200;font-stretch:normal;font-size:96px;font-family:Lato;-inkscape-font-specification:'Lato Ultra-Light'"
         id="path934"
         inkscape:connector-curvature="0" />
      <path
         d="m 1150.3763,334.65695 v -47.328 h 1.152 q 0.96,0 1.008,1.056 l 0.288,11.664 q 2.064,-6.432 5.76,-9.936 3.744,-3.552 9.792,-3.552 1.392,0 2.832,0.24 1.488,0.192 2.64,0.864 l -0.288,1.488 q -0.192,0.528 -0.672,0.528 -0.528,0 -1.632,-0.336 -1.056,-0.384 -3.168,-0.384 -3.024,0 -5.328,0.96 -2.304,0.912 -4.128,2.784 -1.824,1.824 -3.216,4.56 -1.344,2.736 -2.496,6.384 v 31.008 z"
         style="font-style:normal;font-variant:normal;font-weight:200;font-stretch:normal;font-size:96px;font-family:Lato;-inkscape-font-specification:'Lato Ultra-Light'"
         id="path936"
         inkscape:connector-curvature="0" />
      <path
         d="m 1215.2719,350.54495 q -0.24,0.48 -0.576,0.864 -0.336,0.384 -0.96,0.384 h -1.68 l 8.16,-18.288 -20.256,-46.176 h 1.92 q 0.528,0 0.816,0.288 0.336,0.288 0.432,0.576 l 17.664,40.512 q 0.384,1.008 0.72,2.208 0.336,-1.008 0.816,-2.208 l 17.568,-40.512 q 0.192,-0.384 0.48,-0.624 0.336,-0.24 0.72,-0.24 h 1.776 z"
         style="font-style:normal;font-variant:normal;font-weight:200;font-stretch:normal;font-size:96px;font-family:Lato;-inkscape-font-specification:'Lato Ultra-Light'"
         id="path938"
         inkscape:connector-curvature="0" />
      <path
         d="m 1270.6638,286.56095 q 5.04,0 8.928,1.776 3.936,1.728 6.624,4.944 2.688,3.168 4.08,7.68 1.392,4.512 1.392,10.032 0,5.52 -1.392,10.032 -1.392,4.464 -4.08,7.632 -2.688,3.168 -6.624,4.896 -3.888,1.68 -8.928,1.68 -5.04,0 -8.976,-1.68 -3.888,-1.728 -6.576,-4.896 -2.688,-3.168 -4.08,-7.632 -1.392,-4.512 -1.392,-10.032 0,-5.52 1.392,-10.032 1.392,-4.512 4.08,-7.68 2.688,-3.216 6.576,-4.944 3.936,-1.776 8.976,-1.776 z m 0,46.656 q 4.608,0 8.064,-1.584 3.456,-1.584 5.76,-4.512 2.352,-2.928 3.504,-7.008 1.152,-4.08 1.152,-9.12 0,-5.04 -1.152,-9.168 -1.152,-4.128 -3.504,-7.056 -2.304,-2.976 -5.76,-4.56 -3.456,-1.632 -8.064,-1.632 -4.608,0 -8.064,1.632 -3.456,1.584 -5.808,4.56 -2.304,2.928 -3.456,7.056 -1.152,4.128 -1.152,9.168 0,5.04 1.152,9.12 1.152,4.08 3.456,7.008 2.352,2.928 5.808,4.512 3.456,1.584 8.064,1.584 z"
         style="font-style:normal;font-variant:normal;font-weight:200;font-stretch:normal;font-size:96px;font-family:Lato;-inkscape-font-specification:'Lato Ultra-Light'"
         id="path940"
         inkscape:connector-curvature="0" />
      <path
         d="m 1307.7197,287.32895 v 30.288 q 0,3.696 0.816,6.624 0.816,2.928 2.496,4.992 1.728,2.016 4.272,3.12 2.592,1.056 6.048,1.056 5.136,0 9.504,-2.688 4.416,-2.736 7.872,-7.536 v -35.856 h 2.496 v 47.328 h -1.152 q -0.864,0 -1.008,-0.96 l -0.24,-8.208 q -3.36,4.56 -7.92,7.248 -4.56,2.688 -10.032,2.688 -3.936,0 -6.912,-1.2 -2.928,-1.248 -4.896,-3.504 -1.92,-2.304 -2.928,-5.616 -0.96,-3.312 -0.96,-7.488 v -30.288 z"
         style="font-style:normal;font-variant:normal;font-weight:200;font-stretch:normal;font-size:96px;font-family:Lato;-inkscape-font-specification:'Lato Ultra-Light'"
         id="path942"
         inkscape:connector-curvature="0" />
      <path
         d="m 1358.0236,334.65695 v -47.328 h 1.152 q 0.96,0 1.008,1.056 l 0.288,11.664 q 2.064,-6.432 5.76,-9.936 3.744,-3.552 9.792,-3.552 1.392,0 2.832,0.24 1.488,0.192 2.64,0.864 l -0.288,1.488 q -0.192,0.528 -0.672,0.528 -0.528,0 -1.632,-0.336 -1.056,-0.384 -3.168,-0.384 -3.024,0 -5.328,0.96 -2.304,0.912 -4.128,2.784 -1.824,1.824 -3.216,4.56 -1.344,2.736 -2.496,6.384 v 31.008 z"
         style="font-style:normal;font-variant:normal;font-weight:200;font-stretch:normal;font-size:96px;font-family:Lato;-inkscape-font-specification:'Lato Ultra-Light'"
         id="path944"
         inkscape:connector-curvature="0" />
      <path
         d="m 1441.2553,292.17695 q -0.24,0.432 -0.72,0.432 -0.432,0 -1.248,-0.624 -0.768,-0.672 -2.16,-1.392 -1.392,-0.768 -3.504,-1.392 -2.064,-0.672 -5.136,-0.672 -2.832,0 -5.184,0.864 -2.304,0.816 -3.984,2.208 -1.68,1.392 -2.592,3.264 -0.912,1.872 -0.912,3.888 0,2.4 1.152,4.032 1.2,1.632 3.12,2.784 1.92,1.104 4.368,1.92 2.448,0.768 4.992,1.584 2.544,0.768 4.992,1.68 2.448,0.912 4.368,2.256 1.92,1.344 3.072,3.312 1.2,1.968 1.2,4.848 0,2.976 -1.056,5.568 -1.056,2.592 -3.12,4.56 -2.016,1.92 -4.992,3.024 -2.928,1.104 -6.72,1.104 -2.544,0 -4.608,-0.432 -2.064,-0.384 -3.84,-1.104 -1.776,-0.768 -3.312,-1.824 -1.536,-1.056 -2.976,-2.352 l 0.624,-0.816 q 0.192,-0.24 0.336,-0.336 0.192,-0.144 0.576,-0.144 0.48,0 1.344,0.816 0.912,0.768 2.4,1.728 1.536,0.96 3.84,1.776 2.304,0.768 5.664,0.768 3.312,0 5.808,-0.912 2.544,-0.96 4.224,-2.592 1.728,-1.632 2.592,-3.792 0.864,-2.208 0.864,-4.656 0,-2.592 -1.2,-4.32 -1.152,-1.728 -3.072,-2.88 -1.92,-1.2 -4.368,-2.016 -2.448,-0.816 -4.992,-1.584 -2.544,-0.768 -4.992,-1.632 -2.448,-0.912 -4.368,-2.208 -1.92,-1.344 -3.12,-3.264 -1.152,-1.92 -1.152,-4.8 0,-2.4 1.056,-4.608 1.104,-2.256 3.072,-3.936 1.968,-1.728 4.704,-2.736 2.784,-1.008 6.192,-1.008 4.128,0 7.296,1.152 3.168,1.152 6,3.648 z"
         style="font-style:normal;font-variant:normal;font-weight:200;font-stretch:normal;font-size:96px;font-family:Lato;-inkscape-font-specification:'Lato Ultra-Light'"
         id="path946"
         inkscape:connector-curvature="0" />
      <path
         d="m 1487.7673,292.51295 q -0.144,0.144 -0.288,0.288 -0.144,0.096 -0.384,0.096 -0.384,0 -1.2,-0.672 -0.816,-0.672 -2.256,-1.488 -1.44,-0.816 -3.648,-1.488 -2.208,-0.672 -5.328,-0.672 -4.416,0 -7.872,1.584 -3.408,1.536 -5.808,4.464 -2.352,2.928 -3.6,7.056 -1.248,4.128 -1.248,9.312 0,5.328 1.248,9.504 1.296,4.128 3.6,6.96 2.352,2.832 5.616,4.32 3.312,1.488 7.344,1.488 3.648,0 6.096,-0.816 2.496,-0.864 4.128,-1.872 1.632,-1.056 2.496,-1.872 0.864,-0.864 1.248,-0.864 0.384,0 0.624,0.288 l 0.576,0.72 q -0.864,1.2 -2.4,2.352 -1.488,1.152 -3.504,2.064 -1.968,0.864 -4.416,1.392 -2.4,0.576 -5.136,0.576 -4.56,0 -8.256,-1.632 -3.696,-1.632 -6.336,-4.752 -2.592,-3.12 -4.032,-7.632 -1.44,-4.512 -1.44,-10.224 0,-5.472 1.392,-9.984 1.44,-4.512 4.128,-7.68 2.688,-3.216 6.576,-4.992 3.888,-1.776 8.88,-1.776 4.416,0 7.872,1.44 3.456,1.392 5.952,3.696 z"
         style="font-style:normal;font-variant:normal;font-weight:200;font-stretch:normal;font-size:96px;font-family:Lato;-inkscape-font-specification:'Lato Ultra-Light'"
         id="path948"
         inkscape:connector-curvature="0" />
      <path
         d="m 1501.4951,334.65695 v -47.328 h 1.152 q 0.96,0 1.008,1.056 l 0.288,11.664 q 2.064,-6.432 5.76,-9.936 3.744,-3.552 9.792,-3.552 1.392,0 2.832,0.24 1.488,0.192 2.64,0.864 l -0.288,1.488 q -0.192,0.528 -0.672,0.528 -0.528,0 -1.632,-0.336 -1.056,-0.384 -3.168,-0.384 -3.024,0 -5.328,0.96 -2.304,0.912 -4.128,2.784 -1.824,1.824 -3.216,4.56 -1.344,2.736 -2.496,6.384 v 31.008 z"
         style="font-style:normal;font-variant:normal;font-weight:200;font-stretch:normal;font-size:96px;font-family:Lato;-inkscape-font-specification:'Lato Ultra-Light'"
         id="path950"
         inkscape:connector-curvature="0" />
      <path
         d="m 1562.311,334.65695 q -0.96,0 -1.104,-1.008 l -0.48,-6.96 q -1.968,2.016 -3.984,3.648 -1.968,1.584 -4.176,2.736 -2.16,1.104 -4.704,1.728 -2.544,0.624 -5.616,0.624 -2.256,0 -4.464,-0.672 -2.208,-0.672 -3.984,-2.112 -1.776,-1.44 -2.88,-3.696 -1.056,-2.304 -1.056,-5.52 0,-3.12 1.776,-5.664 1.824,-2.544 5.616,-4.368 3.792,-1.872 9.6,-2.928 5.808,-1.104 13.824,-1.296 v -5.616 q 0,-7.104 -3.072,-11.04 -3.072,-3.936 -9.12,-3.936 -3.6,0 -6.192,1.056 -2.592,1.008 -4.32,2.304 -1.728,1.248 -2.784,2.304 -1.008,1.008 -1.536,1.008 -0.48,0 -0.864,-0.528 l -0.432,-0.672 q 3.552,-3.648 7.44,-5.568 3.888,-1.92 8.88,-1.92 3.696,0 6.432,1.2 2.736,1.152 4.512,3.36 1.824,2.208 2.688,5.376 0.864,3.12 0.864,7.056 v 31.104 z m -19.584,-1.104 q 3.072,0 5.616,-0.672 2.544,-0.72 4.704,-1.92 2.16,-1.2 4.032,-2.784 1.872,-1.632 3.6,-3.456 v -13.728 q -14.496,0.48 -21.456,3.6 -6.912,3.12 -6.912,8.736 0,2.64 0.864,4.56 0.912,1.92 2.352,3.216 1.488,1.248 3.36,1.872 1.872,0.576 3.84,0.576 z"
         style="font-style:normal;font-variant:normal;font-weight:200;font-stretch:normal;font-size:96px;font-family:Lato;-inkscape-font-specification:'Lato Ultra-Light'"
         id="path952"
         inkscape:connector-curvature="0" />
      <path
         d="m 1579.5909,351.79295 v -64.464 h 1.2 q 0.912,0 0.96,0.96 l 0.288,8.256 q 3.168,-4.608 7.536,-7.296 4.416,-2.688 9.744,-2.688 8.976,0 13.824,5.952 4.896,5.952 4.896,18.192 0,5.184 -1.344,9.648 -1.296,4.464 -3.936,7.776 -2.592,3.312 -6.48,5.232 -3.84,1.872 -8.928,1.872 -9.984,0 -15.216,-7.824 v 24.384 z m 19.2,-63.216 q -4.992,0 -9.264,2.784 -4.224,2.736 -7.392,7.536 v 25.968 q 2.928,4.608 6.528,6.528 3.6,1.872 8.304,1.872 4.656,0 8.112,-1.68 3.456,-1.728 5.76,-4.752 2.304,-3.024 3.456,-7.152 1.152,-4.128 1.152,-8.976 0,-11.28 -4.272,-16.704 -4.272,-5.424 -12.384,-5.424 z"
         style="font-style:normal;font-variant:normal;font-weight:200;font-stretch:normal;font-size:96px;font-family:Lato;-inkscape-font-specification:'Lato Ultra-Light'"
         id="path954"
         inkscape:connector-curvature="0" />
      <path
         d="m 1635.1268,287.32895 v 47.328 h -2.496 v -47.328 z m 2.064,-17.088 q 0,0.672 -0.288,1.248 -0.288,0.576 -0.768,1.056 -0.432,0.432 -1.056,0.72 -0.576,0.24 -1.2,0.24 -1.344,0 -2.352,-0.96 -0.96,-1.008 -0.96,-2.304 0,-1.344 0.96,-2.304 1.008,-1.008 2.352,-1.008 0.624,0 1.2,0.288 0.624,0.24 1.056,0.72 0.48,0.432 0.768,1.056 0.288,0.576 0.288,1.248 z"
         style="font-style:normal;font-variant:normal;font-weight:200;font-stretch:normal;font-size:96px;font-family:Lato;-inkscape-font-specification:'Lato Ultra-Light'"
         id="path956"
         inkscape:connector-curvature="0" />
      <path
         d="m 1652.5987,334.65695 v -47.328 h 1.2 q 0.912,0 0.96,0.96 l 0.288,8.208 q 3.312,-4.56 7.872,-7.248 4.56,-2.688 10.032,-2.688 3.936,0 6.864,1.248 2.976,1.2 4.896,3.504 1.968,2.256 2.928,5.568 1.008,3.312 1.008,7.488 v 30.288 h -2.544 v -30.288 q 0,-3.696 -0.816,-6.624 -0.816,-2.928 -2.544,-4.944 -1.68,-2.064 -4.224,-3.12 -2.544,-1.104 -6,-1.104 -5.184,0 -9.6,2.736 -4.416,2.688 -7.776,7.488 v 35.856 z"
         style="font-style:normal;font-variant:normal;font-weight:200;font-stretch:normal;font-size:96px;font-family:Lato;-inkscape-font-specification:'Lato Ultra-Light'"
         id="path958"
         inkscape:connector-curvature="0" />
      <path
         d="m 1719.9427,286.56095 q 3.12,0 5.712,0.816 2.64,0.768 4.656,2.16 h 11.808 v 0.768 q 0,0.384 -0.288,0.624 -0.288,0.24 -0.72,0.288 l -8.496,0.336 q 1.776,1.968 2.736,4.512 0.96,2.544 0.96,5.568 0,3.408 -1.2,6.192 -1.152,2.784 -3.312,4.8 -2.112,1.968 -5.136,3.072 -3.024,1.056 -6.72,1.056 -2.304,0 -4.272,-0.384 -1.968,-0.432 -3.696,-1.2 -2.256,1.296 -3.648,3.168 -1.344,1.824 -1.344,3.504 0,2.256 1.488,3.456 1.488,1.2 3.888,1.776 2.4,0.576 5.472,0.768 3.12,0.144 6.336,0.288 3.264,0.144 6.336,0.528 3.12,0.384 5.52,1.392 2.4,1.008 3.888,2.88 1.488,1.872 1.488,4.992 0,2.88 -1.488,5.52 -1.44,2.688 -4.176,4.704 -2.736,2.016 -6.624,3.216 -3.84,1.248 -8.592,1.248 -4.848,0 -8.592,-1.008 -3.696,-1.008 -6.24,-2.784 -2.496,-1.728 -3.792,-4.032 -1.248,-2.304 -1.248,-4.896 0,-3.888 2.64,-6.72 2.64,-2.88 7.152,-4.416 -2.592,-0.72 -4.128,-2.208 -1.536,-1.536 -1.536,-4.272 0,-0.96 0.384,-2.016 0.432,-1.104 1.152,-2.112 0.768,-1.056 1.824,-2.016 1.056,-0.96 2.4,-1.68 -3.312,-1.92 -5.136,-5.184 -1.824,-3.264 -1.824,-7.632 0,-3.36 1.152,-6.096 1.152,-2.784 3.264,-4.752 2.16,-2.016 5.184,-3.12 3.024,-1.104 6.768,-1.104 z m 19.152,51.648 q 0,-2.496 -1.296,-3.984 -1.248,-1.536 -3.36,-2.352 -2.064,-0.864 -4.8,-1.2 -2.736,-0.336 -5.712,-0.48 -2.928,-0.192 -5.904,-0.336 -2.928,-0.144 -5.472,-0.624 -2.112,0.768 -3.888,1.824 -1.728,1.008 -3.024,2.304 -1.248,1.296 -1.968,2.88 -0.72,1.584 -0.72,3.456 0,2.304 1.2,4.32 1.2,2.016 3.456,3.456 2.304,1.488 5.568,2.352 3.264,0.864 7.392,0.864 3.744,0 7.104,-0.912 3.36,-0.912 5.904,-2.592 2.544,-1.632 4.032,-3.936 1.488,-2.304 1.488,-5.04 z m -19.152,-23.28 q 3.312,0 5.904,-0.96 2.64,-0.96 4.416,-2.688 1.824,-1.776 2.736,-4.176 0.96,-2.448 0.96,-5.424 0,-2.928 -0.96,-5.376 -0.96,-2.448 -2.784,-4.176 -1.776,-1.728 -4.416,-2.688 -2.592,-0.96 -5.856,-0.96 -3.264,0 -5.856,0.96 -2.592,0.96 -4.416,2.688 -1.776,1.728 -2.736,4.176 -0.96,2.448 -0.96,5.376 0,2.976 0.96,5.424 0.96,2.4 2.736,4.176 1.824,1.728 4.416,2.688 2.592,0.96 5.856,0.96 z"
         style="font-style:normal;font-variant:normal;font-weight:200;font-stretch:normal;font-size:96px;font-family:Lato;-inkscape-font-specification:'Lato Ultra-Light'"
         id="path960"
         inkscape:connector-curvature="0" />
    </g>
  </g>
</svg>
