<?xml version="1.0" encoding="UTF-8" standalone="no"?>
<!-- Created with Inkscape (http://www.inkscape.org/) -->

<svg
   xmlns:dc="http://purl.org/dc/elements/1.1/"
   xmlns:cc="http://creativecommons.org/ns#"
   xmlns:rdf="http://www.w3.org/1999/02/22-rdf-syntax-ns#"
   xmlns:svg="http://www.w3.org/2000/svg"
   xmlns="http://www.w3.org/2000/svg"
   xmlns:sodipodi="http://sodipodi.sourceforge.net/DTD/sodipodi-0.dtd"
   xmlns:inkscape="http://www.inkscape.org/namespaces/inkscape"
   version="1.1"
   id="svg2"
   xml:space="preserve"
   width="764.44159"
   height="801.17334"
   viewBox="0 0 764.4416 801.17333"
   sodipodi:docname="logo.svg"
   inkscape:version="0.92.5 (2060ec1f9f, 2020-04-08)"><metadata
     id="metadata8"><rdf:RDF><cc:Work
         rdf:about=""><dc:format>image/svg+xml</dc:format><dc:type
           rdf:resource="http://purl.org/dc/dcmitype/StillImage" /><dc:title></dc:title></cc:Work></rdf:RDF></metadata><defs
     id="defs6" /><sodipodi:namedview
     pagecolor="#ffffff"
     bordercolor="#666666"
     borderopacity="1"
     objecttolerance="10"
     gridtolerance="10"
     guidetolerance="10"
     inkscape:pageopacity="0"
     inkscape:pageshadow="2"
     inkscape:window-width="1920"
     inkscape:window-height="1015"
     id="namedview4"
     showgrid="false"
     fit-margin-left="50"
     fit-margin-right="50"
     fit-margin-top="20"
     fit-margin-bottom="20"
     inkscape:zoom="0.25031579"
     inkscape:cx="725.81591"
     inkscape:cy="1423.7867"
     inkscape:window-x="0"
     inkscape:window-y="0"
     inkscape:window-maximized="1"
     inkscape:current-layer="g12" /><g
     id="g10"
     inkscape:groupmode="layer"
     inkscape:label="ink_ext_XXXXXX"
     transform="matrix(1.3333333,0,0,-1.3333333,-916.6669,1182.6)"><g
       id="g12"
       transform="scale(0.1)"><path
         d="m 11499.8,3475.4 c -12.2,0 -24.6,2.2 -36.7,6.8 -53.2,20.2 -79.8,79.8 -59.6,133 134.2,351.8 249.1,702.6 341.5,1042.6 15,54.9 71.6,87.3 126.5,72.4 55,-15 87.4,-71.6 72.4,-126.5 -94.2,-346.5 -211.2,-703.8 -347.8,-1061.9 -15.6,-41.1 -54.8,-66.4 -96.3,-66.4"
         style="fill:#000000;fill-opacity:1;fill-rule:nonzero;stroke:none"
         id="path14"
         inkscape:connector-curvature="0" /><path
         d="m 12074.8,5619.5 c -4.8,0 -9.8,0.4 -14.8,1.1 -56.3,8.1 -95.4,60.3 -87.3,116.7 38.6,267.9 49.8,449.1 53,533.2 11.9,328.5 -48.8,647 -180.7,946.6 -22.9,52.1 0.7,112.9 52.8,135.8 52.1,23 112.9,-0.7 135.9,-52.8 144.4,-328.3 211.1,-677.3 198,-1037.2 -3.4,-88.4 -15,-277.7 -55,-555 -7.4,-51.4 -51.4,-88.4 -101.9,-88.4"
         style="fill:#000000;fill-opacity:1;fill-rule:nonzero;stroke:none"
         id="path16"
         inkscape:connector-curvature="0" /><path
         d="m 11618.8,7678.6 c -29.9,0 -59.5,12.9 -79.9,37.9 -392.7,480.9 -971.6,770.7 -1588.25,795 -29.64,1.3 -59.33,1.9 -88.5,1.9 -56.92,0 -103.06,46.2 -103.06,103.1 0,56.9 46.14,103 103.06,103 32.06,0 64.67,-0.7 96.92,-2 675.33,-26.7 1309.43,-344.1 1739.43,-870.7 36,-44.1 29.5,-109 -14.6,-145 -19.1,-15.6 -42.2,-23.2 -65.1,-23.2"
         style="fill:#000000;fill-opacity:1;fill-rule:nonzero;stroke:none"
         id="path18"
         inkscape:connector-curvature="0" /><path
         d="m 8003.91,7544.3 c -20.4,0 -41.01,6.1 -58.99,18.6 -46.64,32.7 -57.98,96.9 -25.34,143.6 291.14,416 715.83,733 1195.83,892.6 53.97,17.9 112.34,-11.3 130.3,-65.3 17.96,-54 -11.27,-112.3 -65.28,-130.3 -438.25,-145.7 -826.06,-435.2 -1092,-815.2 -20.04,-28.7 -52.02,-44 -84.52,-44"
         style="fill:#000000;fill-opacity:1;fill-rule:nonzero;stroke:none"
         id="path20"
         inkscape:connector-curvature="0" /><path
         d="m 7353.09,5355 c -10.83,0 -21.86,1.7 -32.71,5.3 -53.97,18.1 -83.09,76.5 -65.02,130.4 192.51,575.4 236.51,954.1 241.74,1004.6 17.19,280.3 82.87,551.9 195.22,807.4 22.92,52.1 83.74,75.7 135.82,52.8 52.11,-22.9 75.77,-83.7 52.86,-135.8 -102.8,-233.8 -162.79,-482.4 -178.3,-739 l -0.34,-4.2 c -7.23,-71.6 -53.38,-458.9 -251.55,-1051.2 -14.43,-43.1 -54.61,-70.3 -97.72,-70.3"
         style="fill:#000000;fill-opacity:1;fill-rule:nonzero;stroke:none"
         id="path22"
         inkscape:connector-curvature="0" /><path
         d="m 10904.3,3158.4 c -13.6,0 -27.4,2.7 -40.7,8.5 -52.3,22.4 -76.4,83.1 -54,135.3 213.2,495.6 387.4,990 517.8,1469.2 224.5,825.2 260.1,1368.2 265.7,1514.9 2.1,55.6 47.8,99.2 102.9,99.2 1.3,0 2.7,-0.1 4,-0.1 56.9,-2.2 101.2,-50 99.1,-106.9 -5.8,-152.3 -42.6,-714.9 -272.8,-1561.2 -133,-488.5 -310.4,-992 -527.3,-1496.5 -16.8,-39 -54.8,-62.4 -94.7,-62.4"
         style="fill:#000000;fill-opacity:1;fill-rule:nonzero;stroke:none"
         id="path24"
         inkscape:connector-curvature="0" /><path
         d="m 11634.6,6721.6 c -45.4,0 -87,30.3 -99.4,76.3 -133.3,494.9 -476.5,903.5 -941.7,1121 -51.5,24.1 -73.8,85.5 -49.7,137 24.2,51.6 85.5,73.8 137.1,49.7 253,-118.3 482.5,-294.5 663.6,-509.5 181.9,-216.1 316.7,-473.6 389.7,-744.6 14.8,-55 -17.8,-111.5 -72.7,-126.3 -9,-2.4 -18,-3.6 -26.9,-3.6"
         style="fill:#000000;fill-opacity:1;fill-rule:nonzero;stroke:none"
         id="path26"
         inkscape:connector-curvature="0" /><path
         d="m 8031.55,6350.2 c -1.95,0 -3.91,0.1 -5.89,0.2 -56.83,3.2 -100.29,51.9 -97.09,108.7 57.83,1024.8 907.16,1827.6 1933.58,1827.6 25.76,0 52.44,-0.6 79.31,-1.7 58.47,-2.3 117.64,-7.3 175.64,-14.9 56.4,-7.4 96.2,-59.2 88.8,-115.6 -7.4,-56.4 -59.2,-96.2 -115.6,-88.8 -51.8,6.8 -104.71,11.3 -157.18,13.4 -24.24,1 -48.04,1.5 -70.97,1.5 -917.18,0 -1676.12,-717.4 -1727.79,-1633.1 -3.1,-54.9 -48.55,-97.3 -102.81,-97.3"
         style="fill:#000000;fill-opacity:1;fill-rule:nonzero;stroke:none"
         id="path28"
         inkscape:connector-curvature="0" /><path
         d="m 7583.37,4731.7 c -12.96,0 -26.15,2.5 -38.91,7.7 -52.69,21.5 -77.98,81.7 -56.47,134.4 210.78,516.4 321.34,938.2 376.97,1201.1 11.8,55.7 66.53,91.2 122.16,79.5 55.69,-11.8 91.28,-66.5 79.5,-122.2 -57.39,-271.1 -171.24,-705.7 -387.8,-1236.3 -16.3,-40 -54.81,-64.2 -95.45,-64.2"
         style="fill:#000000;fill-opacity:1;fill-rule:nonzero;stroke:none"
         id="path30"
         inkscape:connector-curvature="0" /><path
         d="m 10370.7,3025.1 c -14.5,0 -29.2,3.1 -43.3,9.6 -51.6,23.9 -74.1,85.2 -50.1,136.8 267,576.3 479.8,1152.8 632.5,1713.5 14.9,55 71.6,87.3 126.5,72.4 54.9,-15 87.3,-71.6 72.3,-126.5 -155.6,-571.8 -372.4,-1159.3 -644.3,-1746.1 -17.5,-37.6 -54.7,-59.7 -93.6,-59.7"
         style="fill:#000000;fill-opacity:1;fill-rule:nonzero;stroke:none"
         id="path32"
         inkscape:connector-curvature="0" /><path
         d="m 11163,5413.8 c -6.4,0 -12.9,0.6 -19.5,1.9 -55.9,10.7 -92.5,64.7 -81.8,120.6 78.5,408.4 95.3,671.6 98.9,765.8 12.8,353 -115.3,688.7 -361,945.1 -39.4,41.1 -37.9,106.4 3.2,145.7 41.1,39.4 106.3,38 145.7,-3.1 284.5,-297 433,-686 418,-1095.4 -3.7,-99 -21.2,-374.7 -102.4,-797 -9.4,-49.3 -52.6,-83.6 -101.1,-83.6"
         style="fill:#000000;fill-opacity:1;fill-rule:nonzero;stroke:none"
         id="path34"
         inkscape:connector-curvature="0" /><path
         d="m 10637.1,7413.9 c -19.6,0 -39.5,5.6 -57,17.3 -197.5,131.5 -427.3,206 -664.63,215.4 -17.37,0.8 -35.17,1.1 -53.32,1.1 -170.05,0 -335.27,-32.2 -491.08,-95.7 -52.69,-21.5 -112.84,3.8 -134.34,56.5 -21.5,52.7 3.81,112.8 56.51,134.3 180.63,73.7 372.04,111 568.91,111 21.12,0 41.95,-0.4 61.89,-1.3 274.76,-10.8 541.26,-97.2 770.26,-249.8 47.4,-31.5 60.2,-95.5 28.7,-142.9 -19.9,-29.8 -52.6,-45.9 -85.9,-45.9"
         style="fill:#000000;fill-opacity:1;fill-rule:nonzero;stroke:none"
         id="path36"
         inkscape:connector-curvature="0" /><path
         d="m 8299.07,5494.9 c -8.99,0 -18.12,1.2 -27.21,3.7 -54.9,14.9 -87.27,71.6 -72.28,126.5 128.23,469.8 157.39,764.9 160.88,804.5 15.36,289.7 112.62,566.4 281.31,800.3 33.31,46.2 97.71,56.6 143.87,23.3 46.17,-33.3 56.6,-97.7 23.32,-143.8 -145.83,-202.2 -229.76,-441.6 -242.76,-692.3 l -0.23,-3.4 c -2.94,-34.2 -32.57,-348.3 -167.56,-842.9 -12.5,-45.8 -54.03,-75.9 -99.34,-75.9"
         style="fill:#000000;fill-opacity:1;fill-rule:nonzero;stroke:none"
         id="path38"
         inkscape:connector-curvature="0" /><path
         d="m 7851.66,4262.1 c -14.16,0 -28.55,3 -42.3,9.2 -51.88,23.3 -74.98,84.4 -51.59,136.3 131.79,292.2 246.44,588.1 340.79,879.3 17.53,54.1 75.64,83.8 129.8,66.3 54.14,-17.6 83.82,-75.7 66.27,-129.8 -96.67,-298.4 -214.07,-601.4 -348.97,-900.6 -17.19,-38.1 -54.72,-60.7 -94,-60.7"
         style="fill:#000000;fill-opacity:1;fill-rule:nonzero;stroke:none"
         id="path40"
         inkscape:connector-curvature="0" /><path
         d="m 9884.94,3010.7 c -15.11,0 -30.45,3.4 -44.95,10.4 -51.2,24.9 -72.54,86.5 -47.68,137.7 184.21,379.3 346.19,764.6 481.39,1145.2 19,53.7 77.9,81.7 131.6,62.7 53.6,-19.1 81.7,-78 62.6,-131.7 -137.7,-387.7 -302.7,-780.1 -490.19,-1166.2 -17.82,-36.7 -54.55,-58.1 -92.77,-58.1"
         style="fill:#000000;fill-opacity:1;fill-rule:nonzero;stroke:none"
         id="path42"
         inkscape:connector-curvature="0" /><path
         d="m 10491.6,4527.6 c -10.2,0 -20.6,1.6 -30.8,4.8 -54.3,17 -84.6,74.8 -67.5,129.1 35.4,113.2 68.7,226.7 98.8,337.2 124.1,456.1 182.4,809.8 209.6,1026.2 7,56.4 58.6,96.4 115,89.4 56.5,-7.1 96.5,-58.6 89.5,-115.1 -28,-222.9 -88,-586.9 -215.3,-1054.6 -30.7,-113.1 -64.7,-229.1 -101,-344.7 -13.8,-44.1 -54.4,-72.3 -98.3,-72.3"
         style="fill:#000000;fill-opacity:1;fill-rule:nonzero;stroke:none"
         id="path44"
         inkscape:connector-curvature="0" /><path
         d="m 10831,6210.9 c -1.2,0 -2.5,0 -3.8,0.1 -56.9,2 -101.3,49.8 -99.2,106.7 13.8,378.1 -216.5,718.3 -573.1,846.5 -53.5,19.3 -81.4,78.3 -62.1,131.9 19.3,53.5 78.3,81.3 131.8,62.1 209.3,-75.2 394.4,-218.2 521.3,-402.5 131.5,-190.9 196.5,-414.1 188.1,-645.5 -2.1,-55.6 -47.8,-99.3 -103,-99.3"
         style="fill:#000000;fill-opacity:1;fill-rule:nonzero;stroke:none"
         id="path46"
         inkscape:connector-curvature="0" /><path
         d="m 8895.38,6292.1 c -1.63,0 -3.27,0 -4.91,0.1 -56.85,2.7 -100.78,50.9 -98.12,107.8 23.13,493.8 376.92,905.3 860.35,1000.6 55.9,11.1 110.03,-25.3 121.05,-81.1 11.01,-55.9 -25.33,-110.1 -81.17,-121.1 -390.13,-76.9 -675.66,-409.2 -694.35,-808.1 -2.59,-55.2 -48.16,-98.2 -102.85,-98.2"
         style="fill:#000000;fill-opacity:1;fill-rule:nonzero;stroke:none"
         id="path48"
         inkscape:connector-curvature="0" /><path
         d="m 8153,3882.2 c -14.95,0 -30.12,3.3 -44.5,10.2 -51.32,24.6 -72.96,86.1 -48.34,137.4 372.14,775.8 555.88,1424.5 644.5,1832 12.08,55.7 67,91 122.59,78.8 55.62,-12 90.9,-66.9 78.81,-122.6 -90.95,-418.3 -279.3,-1083.5 -660.07,-1877.3 -17.72,-36.9 -54.59,-58.5 -92.99,-58.5"
         style="fill:#000000;fill-opacity:1;fill-rule:nonzero;stroke:none"
         id="path50"
         inkscape:connector-curvature="0" /><path
         d="m 9439.3,3085.3 c -15.48,0 -31.18,3.5 -45.97,10.9 -50.91,25.4 -71.57,87.3 -46.14,138.2 90.8,181.8 177.13,366.9 256.59,550.1 22.65,52.2 83.35,76.2 135.56,53.5 52.21,-22.6 76.18,-83.3 53.53,-135.5 -80.93,-186.6 -168.84,-375.1 -261.29,-560.2 -18.05,-36.1 -54.46,-57 -92.28,-57"
         style="fill:#000000;fill-opacity:1;fill-rule:nonzero;stroke:none"
         id="path52"
         inkscape:connector-curvature="0" /><path
         d="m 9870.36,4060.8 c -12.3,0 -24.81,2.3 -36.98,6.9 -53.11,20.5 -79.63,80.1 -59.19,133.2 32.38,84.2 63.85,169.4 93.53,253.1 78.84,222.4 148.38,443.9 206.68,658.3 39.2,144.1 74.2,287.5 104.1,426.3 12,55.6 66.8,91 122.4,79 55.7,-11.9 91.1,-66.8 79.1,-122.4 -30.6,-142.3 -66.5,-289.4 -106.7,-437 -59.7,-219.4 -130.8,-445.8 -211.3,-673 -30.3,-85.5 -62.41,-172.4 -95.44,-258.3 -15.74,-40.9 -54.8,-66.1 -96.2,-66.1"
         style="fill:#000000;fill-opacity:1;fill-rule:nonzero;stroke:none"
         id="path54"
         inkscape:connector-curvature="0" /><path
         d="m 9067.62,5026.5 c -9.97,0 -20.1,1.4 -30.13,4.5 -54.44,16.6 -85.09,74.2 -68.48,128.6 224.38,734.9 254.49,1200.1 255.54,1217.5 14.77,342.7 294.67,611 637.6,611 10.32,0 18.55,-0.1 26.57,-0.5 350.68,-14.1 625.48,-310.8 612.68,-661.6 -1.2,-32.5 -9.7,-208.7 -58.3,-500.9 -9.3,-56.2 -62.5,-94.1 -118.5,-84.8 -56.2,9.4 -94.1,62.4 -84.8,118.6 46.5,279.8 54.5,444.5 55.6,474.7 8.7,237.7 -177.7,438.7 -415.37,448.1 h -1.18 c -5.61,0.3 -11.15,0.3 -16.7,0.3 -232.36,0 -421.98,-182 -431.7,-414.3 l -0.06,-1.3 c -1.1,-20 -29.42,-497.9 -264.24,-1267 -13.56,-44.4 -54.4,-72.9 -98.53,-72.9"
         style="fill:#000000;fill-opacity:1;fill-rule:nonzero;stroke:none"
         id="path56"
         inkscape:connector-curvature="0" /><path
         d="m 8484.48,3573.4 c -15.4,0 -31.04,3.4 -45.78,10.8 -50.97,25.3 -71.76,87.1 -46.43,138.1 172.2,346.6 322.75,699 447.47,1047.6 19.18,53.6 78.19,81.5 131.75,62.3 53.58,-19.2 81.48,-78.2 62.32,-131.7 -127.43,-356.2 -281.17,-716.1 -456.96,-1069.9 -18,-36.2 -54.48,-57.2 -92.37,-57.2"
         style="fill:#000000;fill-opacity:1;fill-rule:nonzero;stroke:none"
         id="path58"
         inkscape:connector-curvature="0" /><path
         d="m 9784.85,5619.5 c -6.62,0 -13.35,0.6 -20.09,2 -55.83,11 -92.15,65.2 -81.12,121.1 75.26,380.6 83.87,597.6 84.2,606.6 2.07,56.9 49.42,101.2 106.74,99.3 56.88,-2.1 101.3,-49.9 99.23,-106.8 -0.36,-9.7 -9.58,-242.6 -87.97,-639.1 -9.7,-49.1 -52.77,-83.1 -100.99,-83.1"
         style="fill:#000000;fill-opacity:1;fill-rule:nonzero;stroke:none"
         id="path60"
         inkscape:connector-curvature="0" /><path
         d="m 8953.26,3271.1 c -15.51,0 -31.23,3.5 -46.04,10.9 -50.91,25.5 -71.51,87.4 -46.04,138.3 378.86,757 590.1,1399.7 700.59,1805.6 21.55,79.3 41.91,158.8 60.51,236.5 13.26,55.4 68.88,89.5 124.22,76.2 55.36,-13.2 89.48,-68.8 76.23,-124.2 -19.09,-79.7 -39.98,-161.3 -62.08,-242.6 -164.29,-603.5 -404.9,-1223.9 -715.15,-1843.8 -18.06,-36 -54.46,-56.9 -92.24,-56.9"
         style="fill:#000000;fill-opacity:1;fill-rule:nonzero;stroke:none"
         id="path62"
         inkscape:connector-curvature="0" /></g></g></svg>